# xmcd
#
# Track frame offsets:
#	150
#	12653
#	27089
#	41318
#	56622
#	71693
#	87138
#	109822
#	124087
#	141804
#	154656
#	181825
#	201221
#	220257
#	235995
#
# Disc length: 3350 seconds
#
# Revision: 0
# Processed by: cddbd v1.4PL0 Copyright (c) Steve Scherf et al.
# Submitted via: EasyCDDAExtractor 4.6.0.1
#
DISCID=cc0d140f
DTITLE=Lucinda Williams - Dark Side Of Life Loose Ends and Scattered Songs
DYEAR=1900
DGENRE=
TTITLE0=Dark Side Of Life
TTITLE1=Nothing In Rambling
TTITLE2=Disgusted
TTITLE3=Goin' Back Home
TTITLE4=Something About What Happens When We Talk
TTITLE5=Sundays
TTITLE6=Positively 4th Street
TTITLE7=Main Road
TTITLE8=Pancakes
TTITLE9=You Don't Have To Go Very Far
TTITLE10=Deportee
TTITLE11=Cowboys To Girls
TTITLE12=Room To Room
TTITLE13=Back To Back
TTITLE14=You're Still Standing There
EXTD=
EXTT0=
EXTT1=
EXTT2=
EXTT3=
EXTT4=
EXTT5=
EXTT6=
EXTT7=
EXTT8=
EXTT9=
EXTT10=
EXTT11=
EXTT12=
EXTT13=
EXTT14=
PLAYORDER=
